# xmcd
#
# Track frame offsets: 
#        150
#        23285
#        39500
#        63772
#        88922
#        107850
#        126212
#        148905
#        169690
#        194027
#        217962
#        238595
#        259185
#        292270
#
# Disc length: 4440 seconds
#
# Revision: 3
# Processed by: cddbd v1.5.2PL0 Copyright (c) Steve Scherf et al.
# Submitted via: ExactAudioCopyFreeDBPlugin 1.0
#
DISCID=d211560e
DTITLE=島谷ひとみ - Heart and Symphony
DYEAR=2005
DGENRE=JPop
TTITLE0=Sky High
TTITLE1=Falco -ファルコ-
TTITLE2=真昼の月
TTITLE3=沙羅双樹
TTITLE4=Salvia
TTITLE5=Garnet Moon
TTITLE6=Mona Lisa
TTITLE7=kokoro
TTITLE8=Mermaid-
TTITLE9=太陽神
TTITLE10=voice
TTITLE11=フレーム
TTITLE12=Viola (crossover version) [Bonus Track]
TTITLE13=CCCD
EXTD=YEAR: 2005
EXTT0=
EXTT1=
EXTT2=
EXTT3=
EXTT4=
EXTT5=
EXTT6=
EXTT7=
EXTT8=
EXTT9=
EXTT10=
EXTT11=
EXTT12=
EXTT13=
PLAYORDER=
